<?xml version="1.0" standalone="no"?>
<!DOCTYPE svg PUBLIC "-//W3C//DTD SVG 20010904//EN"
 "http://www.w3.org/TR/2001/REC-SVG-20010904/DTD/svg10.dtd">
<svg version="1.0" xmlns="http://www.w3.org/2000/svg"
 width="512.000000pt" height="512.000000pt" viewBox="0 0 512.000000 512.000000"
 preserveAspectRatio="xMidYMid meet">
<metadata>
Created by potrace 1.16, written by Peter Selinger 2001-2019
</metadata>
<g transform="translate(0.000000,512.000000) scale(0.100000,-0.100000)"
fill="#000000" stroke="none">
<path d="M34 4786 l-34 -34 0 -2092 0 -2092 34 -34 34 -34 130 0 131 0 3 -221
3 -221 33 -29 32 -29 2160 0 2160 0 32 29 33 29 3 221 3 221 131 0 130 0 34
34 34 34 0 2092 0 2092 -34 34 -34 34 -431 0 -431 0 0 -115 0 -115 355 0 355
0 0 -330 0 -330 -2340 0 -2340 0 0 330 0 330 300 0 300 0 0 115 0 115 -376 0
-376 0 -34 -34z m4866 -2571 l0 -1485 -2340 0 -2340 0 0 1485 0 1485 2340 0
2340 0 0 -1485z m-340 -1855 l0 -140 -2000 0 -2000 0 0 140 0 140 2000 0 2000
0 0 -140z"/>
<path d="M2345 3424 c-703 -124 -1148 -820 -971 -1516 54 -212 159 -393 320
-554 182 -182 377 -288 628 -341 115 -24 362 -24 478 1 167 35 309 95 450 189
106 71 265 233 336 342 218 335 260 760 111 1130 -138 343 -438 617 -788 718
-160 47 -401 60 -564 31z m375 -225 c171 -27 380 -126 503 -239 434 -399 443
-1060 19 -1461 -158 -149 -314 -229 -511 -263 -240 -41 -482 4 -677 125 -389
242 -572 692 -454 1119 47 169 160 353 291 475 126 117 329 215 507 245 70 11
248 11 322 -1z"/>
<path d="M1040 4705 l0 -115 415 0 415 0 0 115 0 115 -415 0 -415 0 0 -115z"/>
<path d="M2090 4705 l0 -115 418 2 417 3 0 110 0 110 -417 3 -418 2 0 -115z"/>
<path d="M3140 4705 l0 -115 420 0 420 0 0 115 0 115 -420 0 -420 0 0 -115z"/>
</g>
</svg>
