<?xml version="1.0" standalone="no"?>
<!DOCTYPE svg PUBLIC "-//W3C//DTD SVG 20010904//EN"
 "http://www.w3.org/TR/2001/REC-SVG-20010904/DTD/svg10.dtd">
<svg version="1.0" xmlns="http://www.w3.org/2000/svg"
 width="512.000000pt" height="512.000000pt" viewBox="0 0 512.000000 512.000000"
 preserveAspectRatio="xMidYMid meet">
<metadata>
Created by potrace 1.16, written by Peter Selinger 2001-2019
</metadata>
<g transform="translate(0.000000,512.000000) scale(0.100000,-0.100000)"
fill="#000000" stroke="none">
<path d="M1010 4540 c0 -393 3 -580 10 -580 6 0 22 7 35 16 l25 16 0 534 0
534 115 0 115 0 0 -510 0 -510 35 0 35 0 0 510 0 510 1575 0 1575 0 0 -1245 0
-1245 -700 0 c-385 0 -700 -2 -700 -5 0 -4 7 -19 15 -35 l16 -30 864 0 865 0
0 1310 0 1310 -1940 0 -1940 0 0 -580z m3820 -725 l0 -1245 -120 0 -120 0 0
1245 0 1245 120 0 120 0 0 -1245z"/>
<path d="M1173 3946 c-107 -35 -194 -114 -246 -224 -29 -61 -32 -75 -32 -167
0 -91 3 -106 31 -165 l31 -66 274 -61 274 -62 39 27 c49 34 109 112 134 177
78 198 -12 428 -203 520 -52 25 -74 29 -160 32 -65 2 -115 -2 -142 -11z"/>
<path d="M3396 3364 c-46 -47 -32 -124 28 -149 81 -34 155 40 121 122 -25 59
-102 73 -149 27z"/>
<path d="M699 3316 c-15 -8 -121 -88 -237 -180 -218 -172 -233 -188 -232 -260
1 -52 21 -81 148 -215 l122 -129 -62 -229 c-34 -125 -64 -254 -66 -285 -4 -55
2 -69 172 -460 97 -222 176 -411 176 -419 0 -8 -86 -200 -192 -428 -141 -306
-192 -427 -196 -462 -14 -143 83 -249 227 -249 75 0 126 23 171 77 17 21 129
249 253 518 266 576 254 524 163 735 -33 74 -65 151 -73 170 -18 43 -36 61
210 -211 l186 -206 14 -449 c15 -496 14 -491 83 -558 92 -89 245 -81 332 18
56 64 56 66 40 628 -14 487 -15 515 -35 553 -12 22 -141 172 -288 334 -146
162 -265 299 -263 306 52 211 185 694 190 692 4 -1 47 -60 95 -131 l88 -129
345 -185 c375 -201 403 -211 475 -176 50 24 75 66 75 130 0 91 -7 97 -370 292
l-325 174 -180 270 c-176 265 -215 313 -258 323 -12 3 -172 39 -356 80 -184
41 -351 75 -370 75 -20 0 -48 -6 -62 -14z"/>
<path d="M2696 2654 c-131 -42 -211 -140 -223 -274 l-6 -57 63 -34 c34 -18 72
-47 85 -63 29 -39 46 -99 38 -137 -5 -26 -2 -31 33 -45 59 -25 184 -15 250 19
177 90 227 321 105 483 -73 97 -228 146 -345 108z"/>
<path d="M2140 2562 c0 -5 22 -21 49 -35 43 -24 60 -27 140 -27 90 0 91 0 106
30 8 16 15 31 15 35 0 3 -70 5 -155 5 -85 0 -155 -4 -155 -8z"/>
</g>
</svg>
