<?xml version="1.0" standalone="no"?>
<!DOCTYPE svg PUBLIC "-//W3C//DTD SVG 20010904//EN"
 "http://www.w3.org/TR/2001/REC-SVG-20010904/DTD/svg10.dtd">
<svg version="1.0" xmlns="http://www.w3.org/2000/svg"
 width="512.000000pt" height="512.000000pt" viewBox="0 0 512.000000 512.000000"
 preserveAspectRatio="xMidYMid meet">
<metadata>
Created by potrace 1.16, written by Peter Selinger 2001-2019
</metadata>
<g transform="translate(0.000000,512.000000) scale(0.100000,-0.100000)"
fill="#000000" stroke="none">
<path d="M634 5105 c-44 -30 -45 -33 -42 -823 l3 -754 33 -29 32 -29 185 0
185 0 0 -405 0 -405 -181 0 -181 0 -29 -29 c-41 -41 -41 -101 0 -142 l29 -29
181 0 181 0 0 -405 0 -405 -185 0 -185 0 -32 -29 -33 -29 -3 -754 c-2 -553 1
-760 9 -781 26 -61 -124 -57 1957 -57 1286 0 1910 3 1923 10 50 27 49 15 49
810 0 809 1 793 -56 819 -16 7 -92 11 -204 11 l-180 0 0 405 0 405 181 0 181
0 29 29 c23 23 29 38 29 71 0 33 -6 48 -29 71 l-29 29 -181 0 -181 0 0 405 0
405 185 0 185 0 32 29 33 29 3 754 c3 790 2 793 -42 823 -31 22 -3821 22
-3852 0z m3686 -810 l0 -625 -120 0 -120 0 0 465 c0 338 -3 471 -12 490 -26
58 59 55 -1507 55 -1095 0 -1446 -3 -1466 -12 -55 -25 -55 -28 -55 -533 l0
-465 -120 0 -120 0 0 625 0 625 1760 0 1760 0 0 -625z m-440 -725 l0 -910
-1320 0 -1320 0 0 910 0 910 1320 0 1320 0 0 -910z m0 -2020 l0 -910 -1320 0
-1320 0 0 910 0 910 1320 0 1320 0 0 -910z m-2840 -565 c0 -498 1 -504 51
-531 42 -21 2896 -21 2938 0 50 27 51 33 51 531 l0 465 120 0 120 0 0 -625 0
-625 -1760 0 -1760 0 0 625 0 625 120 0 120 0 0 -465z"/>
</g>
</svg>
