<?xml version="1.0" standalone="no"?>
<!DOCTYPE svg PUBLIC "-//W3C//DTD SVG 20010904//EN"
 "http://www.w3.org/TR/2001/REC-SVG-20010904/DTD/svg10.dtd">
<svg version="1.0" xmlns="http://www.w3.org/2000/svg"
 width="512.000000pt" height="512.000000pt" viewBox="0 0 512.000000 512.000000"
 preserveAspectRatio="xMidYMid meet">
<metadata>
Created by potrace 1.16, written by Peter Selinger 2001-2019
</metadata>
<g transform="translate(0.000000,512.000000) scale(0.100000,-0.100000)"
fill="#000000" stroke="none">
<path d="M4065 5101 c-100 -27 -149 -48 -239 -100 -128 -74 -255 -210 -325
-348 -12 -24 -25 -43 -29 -43 -4 0 -29 7 -56 15 -170 52 -483 66 -660 31 -472
-93 -797 -366 -1066 -896 -115 -226 -230 -535 -230 -615 0 -43 29 -75 68 -75
51 0 69 24 103 133 104 339 290 696 477 913 177 205 421 341 702 390 159 27
397 13 575 -35 l40 -10 0 -178 c0 -175 0 -179 33 -273 95 -274 302 -474 582
-562 67 -20 94 -23 248 -23 l173 0 9 -35 c64 -239 65 -503 4 -720 -35 -121
-132 -309 -208 -405 -195 -242 -582 -477 -1021 -619 -594 -192 -1085 -169
-1420 69 -144 102 -247 296 -291 549 -13 74 -15 130 -9 301 3 116 7 225 7 244
2 68 -92 97 -133 41 -24 -33 -40 -203 -38 -398 1 -127 -3 -161 -25 -248 -48
-189 -127 -388 -218 -546 -45 -80 -52 -88 -79 -88 -16 0 -44 -6 -62 -14 -18
-8 -236 -219 -505 -488 l-472 -473 0 -59 0 -59 237 -239 237 -238 49 0 c26 0
60 6 75 14 15 8 237 225 494 483 409 410 467 473 473 505 4 21 5 44 2 51 -10
25 255 159 447 226 195 69 267 81 493 85 421 7 792 101 1208 306 360 177 580
352 735 582 103 153 173 327 207 512 27 145 22 409 -10 556 -14 63 -29 124
-32 136 -5 17 5 27 72 66 198 115 333 284 403 503 17 53 24 103 27 207 7 169
-15 277 -80 408 -36 73 -47 86 -74 94 -39 11 -79 -11 -94 -52 -8 -22 -4 -39
25 -102 53 -114 70 -188 70 -315 0 -127 -22 -214 -82 -330 -34 -64 -162 -215
-183 -215 -15 0 -40 60 -49 118 -8 44 -4 94 16 236 34 235 31 324 -14 417 -38
79 -128 169 -204 204 -256 116 -547 -38 -599 -317 -11 -58 -9 -87 16 -264 17
-124 25 -221 22 -259 -4 -58 -32 -135 -49 -135 -16 0 -91 76 -134 136 -100
140 -139 272 -131 444 10 233 122 431 312 552 92 58 152 83 255 104 151 30
299 7 455 -71 101 -51 121 -54 159 -24 32 25 34 66 6 101 -25 32 -154 99 -245
128 -102 32 -350 38 -450 11z m323 -547 c91 -45 152 -141 152 -238 0 -22 -12
-128 -27 -235 -30 -219 -26 -284 23 -390 29 -63 30 -61 -71 -94 -58 -18 -93
-22 -200 -22 -127 0 -145 3 -252 42 l-41 15 30 65 c44 93 47 193 15 433 -33
242 -25 290 65 377 79 76 208 96 306 47z m-2868 -2723 c66 -112 162 -214 269
-285 46 -30 51 -36 35 -42 -112 -40 -326 -140 -420 -198 l-40 -25 -89 89 -88
88 36 59 c54 88 140 265 183 376 l38 98 18 -47 c10 -26 36 -77 58 -113z m-645
-1131 l-120 -120 -135 135 -135 135 120 120 120 120 135 -135 135 -135 -120
-120z"/>
<path d="M2471 3963 c-11 -10 -24 -32 -27 -50 -13 -67 77 -110 124 -60 31 33
29 80 -4 106 -33 26 -65 27 -93 4z"/>
<path d="M3166 3959 c-50 -40 -23 -129 40 -129 57 0 98 56 73 102 -27 51 -69
61 -113 27z"/>
<path d="M2812 3607 c-46 -49 -14 -121 53 -121 27 0 43 6 56 23 59 73 -45 166
-109 98z"/>
<path d="M2023 3510 c-70 -29 -45 -140 31 -140 39 0 76 35 76 72 0 51 -58 88
-107 68z"/>
<path d="M3190 3283 c-33 -12 -50 -37 -50 -74 0 -45 27 -69 76 -69 66 0 92 82
40 127 -27 23 -39 26 -66 16z"/>
<path d="M3894 3279 c-22 -11 -44 -48 -44 -73 0 -7 9 -25 21 -40 41 -52 129
-23 129 43 0 55 -59 93 -106 70z"/>
<path d="M2352 3147 c-31 -33 -29 -80 4 -106 54 -42 118 -13 118 54 0 68 -77
100 -122 52z"/>
<path d="M3505 2915 c-14 -13 -25 -36 -25 -50 0 -35 42 -75 78 -75 65 0 97 89
46 129 -35 28 -69 26 -99 -4z"/>
<path d="M2697 2803 c-29 -33 -31 -68 -4 -98 46 -54 127 -27 127 42 0 20 -8
41 -20 53 -25 25 -81 26 -103 3z"/>
<path d="M1898 2690 c-33 -25 -39 -49 -22 -88 14 -34 48 -48 90 -38 28 7 55
57 46 88 -6 23 -49 58 -72 58 -10 0 -29 -9 -42 -20z"/>
<path d="M3850 2568 c-57 -61 14 -152 89 -114 46 24 54 67 20 110 -27 34 -79
36 -109 4z"/>
<path d="M3045 2455 c-30 -30 -32 -64 -4 -99 41 -52 129 -20 129 48 0 34 -41
76 -75 76 -14 0 -37 -11 -50 -25z"/>
<path d="M2231 2334 c-39 -50 -16 -108 46 -120 67 -13 110 77 60 124 -33 31
-80 29 -106 -4z"/>
<path d="M3392 2110 c-32 -30 -30 -82 4 -109 43 -34 86 -26 110 20 38 75 -53
146 -114 89z"/>
<path d="M2603 2010 c-26 -11 -43 -40 -43 -74 0 -63 89 -90 129 -40 27 34 26
57 -1 88 -27 29 -55 38 -85 26z"/>
</g>
</svg>
