<?xml version="1.0" standalone="no"?>
<!DOCTYPE svg PUBLIC "-//W3C//DTD SVG 20010904//EN"
 "http://www.w3.org/TR/2001/REC-SVG-20010904/DTD/svg10.dtd">
<svg version="1.0" xmlns="http://www.w3.org/2000/svg"
 width="512.000000pt" height="512.000000pt" viewBox="0 0 512.000000 512.000000"
 preserveAspectRatio="xMidYMid meet">
<metadata>
Created by potrace 1.16, written by Peter Selinger 2001-2019
</metadata>
<g transform="translate(0.000000,512.000000) scale(0.100000,-0.100000)"
fill="#000000" stroke="none">
<path d="M820 5097 c-124 -43 -229 -131 -285 -243 -45 -89 -55 -146 -55 -321
0 -157 1 -163 24 -190 22 -26 31 -28 113 -33 l88 -5 -45 -24 c-61 -32 -117
-86 -148 -146 -23 -44 -27 -62 -27 -145 0 -81 4 -102 25 -145 29 -60 93 -124
148 -149 38 -17 40 -20 46 -76 23 -199 139 -413 284 -526 l51 -39 1 -91 0 -91
-64 -7 c-408 -42 -783 -350 -922 -759 -47 -138 -54 -208 -54 -532 l0 -303 31
-26 31 -26 1111 0 1112 0 -240 -241 c-195 -196 -250 -246 -294 -266 -58 -26
-192 -147 -217 -195 -22 -42 -17 -81 15 -124 16 -21 109 -119 208 -216 l180
-178 52 0 c51 0 53 1 135 80 61 59 90 96 109 138 22 49 71 102 349 378 178
176 350 339 383 361 153 103 268 139 500 158 201 16 276 27 410 61 276 70 548
210 770 396 111 93 290 276 334 341 162 238 188 579 66 844 -19 41 -55 103
-79 136 -70 97 -498 517 -583 571 -281 181 -655 180 -932 -2 -76 -49 -286
-255 -380 -373 -124 -152 -232 -339 -296 -509 -16 -41 -30 -77 -31 -79 -2 -2
-25 19 -53 47 -170 170 -425 295 -648 318 l-63 7 0 91 1 91 50 39 c27 21 74
68 103 105 99 122 153 246 177 400 12 78 13 80 50 96 51 23 116 89 147 150 36
72 42 179 13 256 -27 71 -89 143 -152 174 l-48 25 -3 292 c-3 275 -4 296 -24
339 -32 69 -91 128 -159 161 -54 25 -70 28 -165 28 -90 0 -112 -4 -155 -24
-27 -13 -59 -31 -70 -39 -17 -13 -22 -13 -50 9 -68 51 -91 54 -464 54 -332 -1
-349 -1 -411 -23z m735 -191 c41 -17 61 -47 70 -105 10 -59 50 -101 98 -101
49 0 95 40 102 88 14 88 62 132 144 132 54 0 103 -21 124 -53 14 -22 17 -53
17 -192 l0 -165 -716 0 -717 0 6 90 c11 165 80 261 222 306 61 19 604 19 650
0z m557 -672 c3 -68 6 -79 30 -99 15 -13 46 -26 70 -30 57 -10 75 -20 98 -58
26 -42 25 -88 -1 -121 -24 -30 -69 -56 -98 -56 -34 0 -72 -23 -87 -51 -8 -16
-14 -56 -14 -92 0 -100 -18 -175 -65 -272 -69 -143 -191 -254 -338 -305 -259
-91 -542 5 -696 236 -63 94 -91 180 -100 314 -4 60 -13 114 -21 127 -16 24
-51 43 -81 43 -35 0 -84 29 -102 59 -28 48 -22 98 17 137 19 19 42 34 53 34
10 0 35 5 56 11 54 15 77 56 77 137 l0 62 599 0 599 0 4 -76z m1963 -859 c33
-8 98 -34 145 -57 79 -39 100 -56 313 -267 252 -249 303 -314 351 -450 27 -77
30 -98 30 -206 0 -108 -3 -129 -30 -206 -42 -119 -104 -207 -236 -335 -353
-342 -709 -500 -1200 -534 -102 -7 -191 -19 -254 -35 -113 -29 -274 -104 -360
-168 l-61 -45 -87 87 -86 87 63 95 c118 180 160 315 182 584 23 273 51 403
132 599 100 247 240 447 461 658 108 103 207 162 322 192 74 20 240 20 315 1z
m-2862 -817 c58 -62 105 -117 104 -123 -1 -12 -255 -120 -262 -113 -3 3 -27
79 -54 169 l-48 164 31 6 c17 4 52 7 78 8 l46 1 105 -112z m810 106 c20 -4 37
-12 37 -19 0 -13 -90 -318 -96 -324 -4 -5 -254 98 -268 109 -4 5 43 60 104
124 122 126 123 126 223 110z m-1194 -289 c34 -115 66 -222 72 -236 11 -28 57
-59 88 -59 12 0 111 38 221 84 l200 84 0 -109 c0 -116 12 -159 49 -179 45 -23
118 -3 137 38 5 9 11 69 14 133 l5 116 195 -83 c107 -46 207 -84 222 -84 14 0
40 11 56 25 25 21 38 55 98 255 51 173 72 230 84 230 9 0 54 -23 100 -52 89
-54 236 -191 283 -264 25 -37 26 -44 17 -95 -5 -29 -17 -133 -25 -229 -8 -96
-20 -195 -25 -219 -17 -70 -68 -192 -105 -251 l-35 -55 0 168 c0 189 -9 225
-60 252 -39 20 -80 13 -114 -22 l-26 -26 0 -188 0 -189 -770 0 -770 0 0 179
c0 178 0 180 -26 210 -21 25 -33 31 -66 31 -94 0 -108 -34 -108 -255 l0 -165
-171 0 -171 0 5 238 c5 253 12 301 64 431 59 148 182 307 309 402 68 50 177
110 185 101 3 -4 34 -101 68 -217z"/>
<path d="M1213 3813 c-12 -2 -34 -18 -49 -36 -24 -29 -26 -37 -22 -99 7 -93
51 -182 121 -243 228 -200 586 -59 614 242 7 74 -9 107 -64 129 -27 12 -42 13
-68 4 -46 -15 -65 -40 -74 -97 -11 -71 -39 -114 -91 -140 -54 -28 -89 -29
-140 -3 -49 25 -81 69 -87 123 -8 61 -30 97 -68 113 -19 8 -38 13 -42 13 -4
-1 -18 -4 -30 -6z"/>
</g>
</svg>
